<svg width="64" height="64" viewBox="0 0 64 64" fill="none" xmlns="http://www.w3.org/2000/svg">
<defs>
<linearGradient id="pin" x1="20" y1="8" x2="44" y2="38" gradientUnits="userSpaceOnUse">
<stop stop-color="#9EEC34"/>
<stop offset="1" stop-color="#10A943"/>
</linearGradient>
<linearGradient id="car" x1="8" y1="32" x2="38" y2="54" gradientUnits="userSpaceOnUse">
<stop stop-color="#2CC2FF"/>
<stop offset="1" stop-color="#0C4FCB"/>
</linearGradient>
</defs>
<rect width="64" height="64" rx="14" fill="#0F172A"/>
<path d="M32 9C40.8366 9 48 16.1634 48 25C48 36.3681 32 49 32 49C32 49 16 36.3681 16 25C16 16.1634 23.1634 9 32 9Z" fill="url(#pin)"/>
<path d="M32 21V33M25 27V33M39 27V33" stroke="#F8FFF5" stroke-width="3.5" stroke-linecap="round"/>
<circle cx="25" cy="27" r="3" stroke="#F8FFF5" stroke-width="3.5"/>
<circle cx="32" cy="21" r="3" stroke="#F8FFF5" stroke-width="3.5"/>
<circle cx="39" cy="27" r="3" stroke="#F8FFF5" stroke-width="3.5"/>
<path d="M10 38C16 33 25 31 36 31C44 31 51 33 56 37L50 42C45 40 40 39 35 39C26 39 18 40 12 43L10 38Z" fill="url(#car)"/>
<circle cx="18.5" cy="44.5" r="4.5" fill="#0A4AB6"/>
<circle cx="18.5" cy="44.5" r="2.3" fill="#0D3376"/>
<circle cx="40.5" cy="44.5" r="4.5" fill="#0A4AB6"/>
<circle cx="40.5" cy="44.5" r="2.3" fill="#0D3376"/>
</svg>
